<?xml version="1.0" encoding="UTF-8" standalone="no"?>
<!-- Created with Inkscape (http://www.inkscape.org/) -->
<!-- Author: Alexander G. Pronchenkov -->
<svg
   xmlns:dc="http://purl.org/dc/elements/1.1/"
   xmlns:cc="http://web.resource.org/cc/"
   xmlns:rdf="http://www.w3.org/1999/02/22-rdf-syntax-ns#"
   xmlns:svg="http://www.w3.org/2000/svg"
   xmlns="http://www.w3.org/2000/svg"
   xmlns:xlink="http://www.w3.org/1999/xlink"
   xmlns:sodipodi="http://sodipodi.sourceforge.net/DTD/sodipodi-0.dtd"
   xmlns:inkscape="http://www.inkscape.org/namespaces/inkscape"
   id="svg7907"
   sodipodi:version="0.32"
   inkscape:version="0.45pre1"
   width="85"
   height="116"
   version="1.0"
   sodipodi:docbase="C:\Documents and Settings\apronchenkov\Рабочий стол"
   sodipodi:docname="banner-mat-mex.svg"
   inkscape:output_extension="org.inkscape.output.svg.inkscape"
   sodipodi:modified="true">
  <metadata
     id="metadata7912">
    <rdf:RDF>
      <cc:Work
         rdf:about="">
        <dc:format>image/svg+xml</dc:format>
        <dc:type
           rdf:resource="http://purl.org/dc/dcmitype/StillImage" />
      </cc:Work>
    </rdf:RDF>
  </metadata>
  <defs
     id="defs7910">
    <linearGradient
       inkscape:collect="always"
       id="linearGradient15159">
      <stop
         style="stop-color:#00ffff;stop-opacity:1;"
         offset="0"
         id="stop15161" />
      <stop
         style="stop-color:#2323ff;stop-opacity:0"
         offset="1"
         id="stop15163" />
    </linearGradient>
    <filter
       inkscape:collect="always"
       x="-0.78764419"
       width="2.5752884"
       y="-0.59359879"
       height="2.1871976"
       id="filter16152">
      <feGaussianBlur
         inkscape:collect="always"
         stdDeviation="35.690127"
         id="feGaussianBlur16154" />
    </filter>
    <pattern
       patternUnits="userSpaceOnUse"
       width="90.625"
       height="120.25"
       patternTransform="translate(-1,-0.6249997)"
       id="pattern16156">
      <rect
         y="0"
         x="0"
         height="120.25"
         width="90.625"
         id="rect14188"
         style="fill:url(#linearGradient16159);fill-opacity:1;stroke:#0000ff;stroke-width:0;stroke-linejoin:miter;stroke-miterlimit:4;stroke-dasharray:none;stroke-opacity:1;filter:url(#filter16152)" />
    </pattern>
    <linearGradient
       inkscape:collect="always"
       xlink:href="#linearGradient15159"
       id="linearGradient16159"
       gradientUnits="userSpaceOnUse"
       x1="63.75"
       y1="49.75"
       x2="30.625"
       y2="54.875"
       gradientTransform="translate(1,0.6249997)" />
  </defs>
  <sodipodi:namedview
     inkscape:window-height="1005"
     inkscape:window-width="1206"
     inkscape:pageshadow="2"
     inkscape:pageopacity="0.0"
     guidetolerance="10.0"
     gridtolerance="10.0"
     objecttolerance="10.0"
     borderopacity="1.0"
     bordercolor="#666666"
     pagecolor="#ffffff"
     id="base"
     inkscape:zoom="4"
     inkscape:cx="111.30155"
     inkscape:cy="75.987616"
     inkscape:window-x="66"
     inkscape:window-y="0"
     inkscape:current-layer="layer3"
     showguides="true"
     inkscape:guide-bbox="true" />
  <g
     style="fill:#000000;fill-opacity:1"
     transform="translate(-277.67658,-267.114)"
     id="g9601" />
  <g
     inkscape:groupmode="layer"
     id="layer1"
     inkscape:label="Фон"
     style="display:inline" />
  <g
     inkscape:groupmode="layer"
     id="layer3"
     inkscape:label="Первый план"
     style="display:inline">
    <g
       style="display:none"
       id="g12702">
      <path
         sodipodi:nodetypes="cccccc"
         id="rect7985"
         clip-path="none"
         d="M 33.236528,-0.16837741 L 33.236528,116.20663 L 84.924028,116.20663 L 84.924028,-0.16837741 L 84.361528,-0.16837741 L 33.236528,-0.16837741 z "
         style="fill:#000080;fill-opacity:1;stroke:none;stroke-width:1.13034499;stroke-opacity:1" />
      <path
         sodipodi:nodetypes="ccccc"
         id="rect9682"
         d="M -0.075973325,-0.16837741 L -0.075973325,116.20663 L 33.299028,116.20663 L 33.299028,-0.16837741 L -0.075973325,-0.16837741 z "
         style="fill:#00ffff;fill-opacity:1;stroke:none;stroke-width:0.93240416;stroke-opacity:1" />
    </g>
    <g
       transform="translate(-1.213256,-1.2757597)"
       id="g13968"
       style="display:inline">
      <g
         id="g13970">
        <path
           sodipodi:nodetypes="cccccccccccccc"
           id="path13972"
           d="M 24.09375,24.0625 L 17.65625,31 L 11.082031,24.0625 L 5.0625,24.0625 L 5.0625,33.125 L 11.09375,33.125 L 11.09375,27.03125 L 16.9375,33.09375 L 18.375,33.09375 L 24.105469,27.035156 L 24.101562,33.125 L 30.09375,33.125 L 30.09375,24.0625 L 24.09375,24.0625 z "
           style="fill:#000000;fill-opacity:1;fill-rule:evenodd;stroke:none;stroke-width:1px;stroke-linecap:butt;stroke-linejoin:miter;stroke-opacity:1" />
        <path
           sodipodi:nodetypes="csccccsscssccsssssscccccccssccccc"
           id="path13974"
           d="M 11.0625,37.0625 C 10.140576,37.0625 9.5409005,37.387246 9.25,37.78125 C 8.9590996,38.175254 8.96875,38.625 8.96875,38.625 L 8.96875,39.09375 L 15.093751,39.125 C 15.093751,39.125 15.089844,38.664063 15.09375,38.59375 C 15.099027,38.498767 15.167742,38.399405 15.34375,38.28125 C 15.519758,38.163095 15.771658,38.09375 15.9375,38.09375 C 16.452024,38.09375 19.391747,38.095378 20.09375,38.09375 C 20.09375,38.733888 20.093749,40.06215 20.09375,40.0625 C 20.095472,40.615891 19.990997,40.807811 19.875,40.90625 C 19.766439,40.998379 19.473086,41.086006 19,41.09375 C 16.437498,41.094451 13.875001,41.090962 11.3125,41.09375 C 10.747377,41.094173 10.297394,41.185861 9.9375,41.40625 C 9.577606,41.626639 9.2866345,41.974436 9.1640625,42.3125 C 8.9189184,42.988628 8.9921875,43.675069 8.9921875,44.1875 C 8.9921875,44.795372 9.1633926,45.300259 9.53125,45.65625 C 9.8991074,46.012241 10.405587,46.093751 10.96875,46.09375 C 11.977791,46.09375 13.763753,46.163154 16.96875,46.125 C 18.496515,46.106812 19.306341,45.895738 19.871094,45.65625 L 19.871094,46.136719 L 26.152344,46.136719 C 26.153362,46.128904 26.147418,40.781392 26.152344,38.125 C 26.149974,37.747509 25.903653,37.051136 25.144531,37.058594 C 25.099337,37.042969 11.0625,37.0625 11.0625,37.0625 z M 19.90625,44.519531 C 19.886894,44.5415 19.829397,44.634395 19.652344,44.71875 C 19.298239,44.887459 18.523174,45.106495 16.96875,45.125 C 15.972307,45.136862 15.832084,45.12705 15.09375,45.125 C 15.093813,44.910025 15.093628,42.507321 15.09375,42.09375 L 18.9375,42.09375 C 19.56074,42.096645 19.78125,42.042969 19.902344,41.953125 C 19.903485,42.684763 19.896634,44.050257 19.90625,44.519531 z "
           style="fill:#000000;fill-opacity:1;fill-rule:evenodd;stroke:none;stroke-width:1px;stroke-linecap:butt;stroke-linejoin:miter;stroke-opacity:1" />
        <g
           transform="translate(8.9179896e-2,9.7658312e-2)"
           id="g13976">
          <g
             id="g13978">
            <path
               sodipodi:nodetypes="cccccccccccccccccccccccc"
               style="fill:#000000;fill-opacity:1"
               d="M 5.09375,49.125 L 5.09375,59.128906 L 11.125,59.128906 L 11.125,53.71875 C 11.796019,52.998463 12.797156,52.589318 13.78125,52.75 C 14.201958,53.059203 14.14487,53.688531 14.21875,54.15625 C 14.28671,55.772469 14.217585,57.512833 14.1875,59.128906 C 14.202909,59.129928 20.04457,59.128813 20.0625,59.128906 C 20.060899,59.105867 20.093051,54.058272 20.09375,54.03125 C 20.924447,52.9763 22.347347,52.681876 23.625,52.71875 C 24.101789,52.785306 24.064389,53.654208 24.09375,54.09375 C 24.090421,55.76051 24.089334,57.46238 24.109375,59.128906 C 26.098958,59.128904 30.069011,59.121094 30.105469,59.128906 C 30.104968,59.104546 30.105404,52.613848 30.105469,52.5625 C 30.05105,51.32839 29.343332,50.080044 28.15625,49.625 C 27.611756,49.396563 27.024075,49.323374 26.4375,49.3125 C 25.144116,49.343808 23.84113,49.587678 22.625,50.03125 C 21.707001,50.3999 20.827964,50.90432 20.0625,51.53125 C 19.982406,50.687101 19.600003,49.813921 18.78125,49.46875 C 18.070678,49.125785 17.262527,49.201804 16.5,49.21875 C 15.378611,49.222906 14.299978,49.613617 13.25,49.96875 C 12.471119,50.277714 11.76205,50.738474 11.125,51.28125 L 11.125,49.125 L 5.09375,49.125 z "
               transform="translate(-8.9179896e-2,-9.7658312e-2)"
               id="path13980" />
          </g>
        </g>
      </g>
      <g
         id="g13982">
        <g
           id="g13984" />
      </g>
    </g>
    <path
       style="fill:#000080;fill-opacity:1;stroke:none;stroke-width:0.93240416;stroke-opacity:1;display:inline"
       d="M 28.5625,66.28125 C 28.136451,68.000782 27.395739,70.77121 26.65625,72.875 C 24.138676,81.754307 21.38849,90.783058 16.28125,98.5625 C 14.493936,101.05696 12.020338,104.08237 8.59375,103.65625 C 5.7487945,103.44515 3.2514118,100.89443 3.78125,97.9375 C 3.900018,96.543446 4.7828036,93.041243 5,96.15625 C 5.8047259,98.810331 9.296534,99.977172 11.5,98.25 C 14.361843,96.273977 16.564661,92.479928 15.46875,88.96875 C 14.172102,85.819313 9.9291453,85.598536 7.15625,86.65625 C 1.5861302,89.031455 -0.7664074,96.267754 1.15625,101.78125 C 2.4595837,105.78061 7.017617,107.63043 10.9375,106.875 C 16.919632,105.79396 21.230563,100.92312 24.65625,96.25 C 27.395333,92.386841 29.770856,88.252327 31.65625,83.90625 C 31.982928,86.743958 32.399206,89.649794 33.3125,92.375 L 33.3125,66.28125 C 31.731804,66.280967 30.15303,66.278851 28.5625,66.28125 z "
       id="path14053" />
    <path
       style="fill:#000080;fill-opacity:1;stroke:none;stroke-width:1.13034499;stroke-opacity:1;display:inline"
       clip-path="none"
       d="M 33.3125,0 L 33.3125,50.0625 C 33.363084,49.899074 33.418681,49.725278 33.46875,49.5625 C 37.728741,36.869697 40.980969,23.407176 49.09375,12.46875 C 52.471122,8.0611152 57.023501,3.6314045 62.875,3.3125 C 65.562639,3.3338496 68.455794,4.0999182 70.28125,6.1875 C 73.312157,9.8654895 72.112324,15.226198 69.78125,18.9375 C 67.878332,21.813485 65.340186,25.016276 61.6875,25.40625 C 58.83839,25.65678 55.407634,23.58333 55.9375,20.375 C 56.643281,17.143566 58.629375,13.974922 61.625,12.4375 C 64.034164,10.903921 67.429116,13.326398 67.9375,14.71875 C 70.149822,12.453055 68.946856,8.2182059 65.6875,7.8125 C 63.213097,7.1421285 60.734443,8.3222991 59.1875,10.25 C 53.347231,17.28544 50.061251,26.032392 47.15625,34.59375 C 43.95679,44.701391 41.655867,55.068842 39.0625,65.34375 C 37.146724,65.34375 35.228276,65.34375 33.3125,65.34375 L 33.3125,66.28125 C 35.15798,66.281582 37.018033,66.284049 38.875,66.28125 C 36.916719,71.651547 35.782778,77.516838 36.71875,83.21875 C 36.907957,85.02952 38.4784,89.880459 40.46875,86.71875 C 43.816349,80.771883 44.886219,73.900928 46.15625,67.28125 C 47.867626,67.276815 49.602805,67.234122 51.28125,67.25 C 52.959109,67.265872 52.479062,67.650623 52.1875,70.21875 C 51.895733,72.788674 50.610591,81.58049 51.1875,87.28125 C 51.696021,89.403736 52.359529,93.981397 53.75,93.90625 C 54.159257,93.887724 55.400178,91.673226 55.766735,90.297985 C 54.90949,88.896009 54.343431,87.095585 54.25,85.46875 C 54.076699,82.454961 54.574225,79.349448 55.90625,76.625 C 57.776224,72.955001 61.689846,70.18992 65.90625,70.375 C 67.622372,70.369226 69.35083,71.221927 70.15625,72.78125 C 71.279977,74.98727 71.065099,77.703213 70.03125,79.90625 C 68.669293,82.941982 65.197543,84.889207 61.90625,84.28125 C 61.128508,84.18013 59.991855,83.463048 60.53125,82.5625 C 61.360905,81.482702 62.716985,80.972719 63.8125,80.21875 C 65.309986,79.463564 66.176545,77.944285 66.59375,76.375 C 66.822936,75.535074 66.942258,74.050652 65.78125,73.90625 C 64.201456,73.836225 62.689577,74.766262 61.71875,75.96875 C 59.557109,78.71304 59.201483,82.437653 59.78125,85.78125 C 59.954445,87.236447 60.750452,88.636689 61.96875,89.46875 C 62.695311,90.033266 63.726058,89.841756 64.28125,89.125 C 65.672151,88.014586 66.455791,86.372645 67.65625,85.09375 C 68.40311,83.981511 70.228377,84.375154 70.125,85.8125 C 70.160643,88.207382 68.906754,90.518793 67.125,92.0625 C 64.753483,94.128429 60.674008,94.008612 57.951364,92.604473 C 57.437,93.839268 56.965246,94.776689 55.930837,96.297335 C 54.896428,97.817981 52.28515,100.68086 49.375,98.6875 C 46.450203,96.684107 44.364506,91.935035 43.84375,87.875 C 42.8567,89.878928 42.125442,91.708861 40.96875,93.90625 C 39.805613,96.115883 36.625274,98.719431 34.6875,95.59375 C 34.123522,94.587246 33.681342,93.553303 33.3125,92.46875 L 33.3125,102.5625 L 85,102.5625 L 85,0 L 84.4375,0 L 33.3125,0 z M 82.21875,58.75 C 82.411096,58.747469 82.621958,58.759959 82.8125,58.78125 C 83.135416,58.822916 83.458334,58.864584 83.78125,58.90625 C 82.704004,60.078115 81.613826,61.258039 80.65625,62.53125 C 80.209469,63.057084 79.93242,63.705992 79.4375,64.1875 C 80.388139,65.136485 81.627879,65.673239 82.90625,66.03125 C 83.623552,66.056605 84.056109,66.95054 83.5625,67.53125 C 82.852294,68.608968 81.46924,69.079853 80.21875,68.96875 C 78.97724,69.005816 77.927244,68.266556 77,67.53125 C 76.25441,68.591843 75.434934,69.599543 74.40625,70.375 C 73.453516,71.183141 72.019707,71.595883 70.875,70.9375 C 70.276437,70.675177 69.923196,69.912481 70.34375,69.34375 C 71.535859,68.537102 72.691607,67.645706 73.6875,66.59375 C 74.030089,66.137409 74.924655,65.470875 74.375,64.875 C 72.706198,63.395374 70.762647,62.330886 68.9375,61.0625 C 69.646215,60.429674 70.459363,59.8921 71.40625,59.71875 C 72.86543,59.395489 74.215697,60.262762 75.375,61.03125 C 75.99343,61.301743 76.686197,62.126254 77.34375,61.9375 C 78.187691,60.767507 79.200852,59.647856 80.53125,59.03125 C 81.075242,58.855881 81.641713,58.757592 82.21875,58.75 z M 33.3125,103.3125 L 33.3125,116.375 L 85,116.375 L 85,103.3125 L 33.3125,103.3125 z M 39.46875,104.71875 L 42.5,104.71875 L 45.625,109.21875 L 48.28125,104.71875 L 51.09375,104.71875 L 46.59375,111.3125 C 46.101578,112.02679 45.572889,112.56457 45.0625,112.9375 C 44.552101,113.31043 43.901871,113.5 43.09375,113.5 C 42.297774,113.5 41.668381,113.47334 41.21875,113.40625 L 41.21875,112.09375 C 41.601542,112.10953 41.971365,112.125 42.28125,112.125 C 42.907088,112.125 43.354608,112.05424 43.625,111.90625 C 43.895382,111.75826 44.157124,111.42685 44.40625,110.9375 L 39.46875,104.71875 z M 57.65625,104.75 L 67.15625,104.75 L 67.15625,106.21875 L 60.5,106.21875 L 60.5,113.46875 L 57.65625,113.46875 L 57.65625,104.75 z M 67.1875,104.75 L 70.34375,104.75 L 73.625,109.28125 L 76.40625,104.75 L 79.375,104.75 L 74.625,111.375 C 74.108728,112.09163 73.59788,112.62585 73.0625,113 C 72.527108,113.37415 71.81644,113.5625 70.96875,113.5625 C 70.133801,113.5625 69.502897,113.53606 69.03125,113.46875 L 69.03125,112.15625 C 69.432786,112.17209 69.799942,112.1875 70.125,112.1875 C 70.781484,112.1875 71.247619,112.11722 71.53125,111.96875 C 71.814872,111.82028 72.082426,111.49095 72.34375,111 L 67.1875,104.75 z M 53.96875,106.8125 C 54.725581,106.8125 55.347255,107.025 55.875,107.4375 C 56.402731,107.85 56.687493,108.41944 56.6875,109.15625 C 56.687493,109.91297 56.406823,110.51789 55.875,110.9375 C 55.343164,111.35711 54.69433,111.5625 53.9375,111.5625 C 53.577488,111.5625 53.261253,111.50582 52.96875,111.40625 C 52.676239,111.30668 52.354436,111.14806 52.03125,110.90625 L 52.03125,113.1875 L 50.3125,113.1875 L 50.3125,106.9375 L 51.9375,106.9375 L 51.9375,107.59375 C 52.146138,107.36617 52.42533,107.1735 52.78125,107.03125 C 53.137165,106.88901 53.5351,106.8125 53.96875,106.8125 z M 53.5,107.78125 C 53.078623,107.78126 52.715685,107.86759 52.4375,108.09375 C 52.159311,108.31992 52.031247,108.68121 52.03125,109.125 C 52.031249,109.63423 52.178286,110.00677 52.46875,110.25 C 52.759209,110.49324 53.113964,110.59375 53.53125,110.59375 C 53.932165,110.59375 54.26533,110.50457 54.53125,110.28125 C 54.797159,110.05794 54.906245,109.69673 54.90625,109.1875 C 54.906244,108.71242 54.774092,108.35543 54.5,108.125 C 54.225896,107.89457 53.905005,107.78125 53.5,107.78125 z "
       id="path12723"
       sodipodi:nodetypes="ccccccccccccccccccccczzcccscccccccsccccccccczzczccccccccscccccccccccccccccccccccccccccssccsscccccccccccccccssccsscccsssssccccccsccsssssssc" />
    <path
       style="fill:#000080;fill-opacity:1;stroke:none;stroke-width:0.93240416;stroke-opacity:1;display:inline"
       d="M 33.375,49.96875 C 31.825054,54.981868 30.054021,60.286894 28.78125,65.34375 C 30.537017,65.347445 30.227838,65.369281 31.0625,65.34375 C 31.832975,65.343749 32.604525,65.34375 33.375,65.34375 L 33.375,49.96875 z "
       id="path12659" />
    <path
       transform="translate(-1.1962984,-1.2619047)"
       style="fill:#000080;fill-opacity:1;fill-rule:evenodd;stroke:none;stroke-width:1px;stroke-linecap:butt;stroke-linejoin:miter;stroke-opacity:1"
       d="M 24.09375,24.0625 L 17.65625,31 L 11.082031,24.0625 L 5.0625,24.0625 L 5.0625,33.125 L 11.09375,33.125 L 11.09375,27.03125 L 16.9375,33.09375 L 18.375,33.09375 L 24.105469,27.035156 L 24.101562,33.125 L 30.09375,33.125 L 30.09375,24.0625 L 24.09375,24.0625 z "
       id="path9613"
       sodipodi:nodetypes="cccccccccccccc" />
    <path
       transform="translate(-1.1962984,-1.2619047)"
       style="fill:#000080;fill-opacity:1;fill-rule:evenodd;stroke:none;stroke-width:1px;stroke-linecap:butt;stroke-linejoin:miter;stroke-opacity:1"
       d="M 11.0625,37.0625 C 10.140576,37.0625 9.5409005,37.387246 9.25,37.78125 C 8.9590996,38.175254 8.96875,38.625 8.96875,38.625 L 8.96875,39.09375 L 15.093751,39.125 C 15.093751,39.125 15.089844,38.664063 15.09375,38.59375 C 15.099027,38.498767 15.167742,38.399405 15.34375,38.28125 C 15.519758,38.163095 15.771658,38.09375 15.9375,38.09375 C 16.452024,38.09375 19.391747,38.095378 20.09375,38.09375 C 20.09375,38.733888 20.093749,40.06215 20.09375,40.0625 C 20.095472,40.615891 19.990997,40.807811 19.875,40.90625 C 19.766439,40.998379 19.473086,41.086006 19,41.09375 C 16.437498,41.094451 13.875001,41.090962 11.3125,41.09375 C 10.747377,41.094173 10.297394,41.185861 9.9375,41.40625 C 9.577606,41.626639 9.2866345,41.974436 9.1640625,42.3125 C 8.9189184,42.988628 8.9921875,43.675069 8.9921875,44.1875 C 8.9921875,44.795372 9.1633926,45.300259 9.53125,45.65625 C 9.8991074,46.012241 10.405587,46.093751 10.96875,46.09375 C 11.977791,46.09375 13.763753,46.163154 16.96875,46.125 C 18.496515,46.106812 19.306341,45.895738 19.871094,45.65625 L 19.871094,46.136719 L 26.152344,46.136719 C 26.153362,46.128904 26.147418,40.781392 26.152344,38.125 C 26.149974,37.747509 25.903653,37.051136 25.144531,37.058594 C 25.099337,37.042969 11.0625,37.0625 11.0625,37.0625 z M 19.90625,44.519531 C 19.886894,44.5415 19.829397,44.634395 19.652344,44.71875 C 19.298239,44.887459 18.523174,45.106495 16.96875,45.125 C 15.972307,45.136862 15.832084,45.12705 15.09375,45.125 C 15.093813,44.910025 15.093628,42.507321 15.09375,42.09375 L 18.9375,42.09375 C 19.56074,42.096645 19.78125,42.042969 19.902344,41.953125 C 19.903485,42.684763 19.896634,44.050257 19.90625,44.519531 z "
       id="path9615"
       sodipodi:nodetypes="csccccsscssccsssssscccccccssccccc" />
    <path
       id="rect9633"
       transform="translate(-1.1962984,-1.2619047)"
       d="M 5.09375,49.125 L 5.09375,59.128906 L 11.125,59.128906 L 11.125,53.71875 C 11.796019,52.998463 12.797156,52.589318 13.78125,52.75 C 14.201958,53.059203 14.14487,53.688531 14.21875,54.15625 C 14.28671,55.772469 14.217585,57.512833 14.1875,59.128906 C 14.202909,59.129928 20.04457,59.128813 20.0625,59.128906 C 20.060899,59.105867 20.093051,54.058272 20.09375,54.03125 C 20.924447,52.9763 22.347347,52.681876 23.625,52.71875 C 24.101789,52.785306 24.064389,53.654208 24.09375,54.09375 C 24.090421,55.76051 24.089334,57.46238 24.109375,59.128906 C 26.098958,59.128904 30.069011,59.121094 30.105469,59.128906 C 30.104968,59.104546 30.105404,52.613848 30.105469,52.5625 C 30.05105,51.32839 29.343332,50.080044 28.15625,49.625 C 27.611756,49.396563 27.024075,49.323374 26.4375,49.3125 C 25.144116,49.343808 23.84113,49.587678 22.625,50.03125 C 21.707001,50.3999 20.827964,50.90432 20.0625,51.53125 C 19.982406,50.687101 19.600003,49.813921 18.78125,49.46875 C 18.070678,49.125785 17.262527,49.201804 16.5,49.21875 C 15.378611,49.222906 14.299978,49.613617 13.25,49.96875 C 12.471119,50.277714 11.76205,50.738474 11.125,51.28125 L 11.125,49.125 L 5.09375,49.125 z "
       style="fill:#000080;fill-opacity:1"
       sodipodi:nodetypes="cccccccccccccccccccccccc" />
    <rect
       style="fill:#000080;fill-opacity:1;stroke:#000080;stroke-width:0;stroke-linejoin:miter;stroke-miterlimit:4;stroke-dasharray:none;stroke-opacity:1;display:inline"
       id="rect17200"
       width="12.21875"
       height="0.5"
       x="20.949219"
       y="102.6875" />
  </g>
  <g
     id="g12426" />
</svg>
